<svg xmlns="http://www.w3.org/2000/svg" width="104" height="25" viewBox="0 0 27.517 6.615" xmlns:v="https://vecta.io/nano"><defs><linearGradient id="A" x1="23.216" y1="4.878" x2="25.942" y2="-.371" gradientUnits="userSpaceOnUse"><stop offset="0" stop-color="#06f"/><stop offset="1" stop-color="#0067ff" stop-opacity="0"/></linearGradient></defs><path fill="#fff" fill-rule="evenodd" d="M0 0h27.517v6.615H0z" fill-opacity=".25"/><path d="M16.12 7.231c-.045-.147-.083-.219-.124-.231-.033-.01-.083-.011-.113-.002s-.091.085-.139.169a.79.79 0 0 1-.116.171c-.017.01-.066.011-.109 0-.077-.019-.078-.025-.068-.253s.008-.236-.07-.28-.088-.04-.254.085-.176.129-.248.081c-.041-.027-.075-.062-.075-.08a.97.97 0 0 1 .094-.197c.062-.11.087-.188.075-.229-.01-.034-.044-.075-.073-.091-.036-.019-.119-.012-.247.02-.185.047-.196.046-.235-.007-.023-.031-.041-.073-.041-.094s.069-.095.153-.166c.098-.081.153-.152.153-.194a.238.238 0 0 0-.026-.105c-.014-.021-.113-.053-.221-.07s-.208-.043-.222-.057-.021-.058-.016-.098c.008-.059.047-.084.209-.136s.205-.081.227-.144c.02-.056.016-.093-.012-.127a.897.897 0 0 0-.188-.129c-.109-.059-.149-.1-.149-.149a.15.15 0 0 1 .042-.103c.023-.019.125-.032.251-.027.196.008.21.004.253-.07s.038-.087-.086-.253c-.115-.153-.126-.179-.09-.227a.512.512 0 0 1 .071-.075c.016-.012.105.019.197.069a.82.82 0 0 0 .218.091c.028 0 .075-.027.104-.059.049-.055.05-.07.005-.227a1.4 1.4 0 0 1-.048-.211c0-.024.038-.061.083-.082.077-.035.09-.031.156.048l.145.173c.057.067.09.081.143.065a.311.311 0 0 0 .093-.043.81.81 0 0 0 .058-.223c.027-.158.047-.204.093-.217a.201.201 0 0 1 .103.001c.023.009.065.094.092.189a.979.979 0 0 0 .08.21c.016.021.07.038.116.038.072 0 .101-.027.183-.17.054-.094.115-.177.137-.186s.07 0 .104.019c.058.031.064.057.056.269-.008.229-.006.235.072.263.07.025.103.013.233-.082.084-.061.173-.112.197-.112s.068.026.096.056c.048.052.045.067-.041.221-.05.091-.091.188-.091.214s.027.074.061.104c.059.053.07.053.244.005l.198-.051c.008 0 .038.036.068.081.052.081.052.081-.126.239s-.178.159-.135.249c.038.08.065.093.242.121.199.031.199.031.199.134s-.006.106-.199.168c-.185.059-.199.071-.209.16s.006.105.176.209c.102.062.185.13.185.15s-.019.063-.041.094c-.036.048-.07.054-.242.038s-.208-.01-.249.036c-.027.03-.049.075-.049.102s.049.112.11.19c.08.105.105.163.092.215-.01.039-.041.08-.069.091s-.119-.019-.214-.073-.182-.092-.205-.092-.066.027-.097.06c-.051.057-.051.072-.006.252s.044.196-.001.245c-.027.03-.071.054-.099.054s-.103-.069-.167-.153c-.091-.119-.135-.153-.201-.153-.047 0-.099.017-.115.038s-.041.114-.052.207-.036.186-.052.207-.063.038-.103.038c-.062 0-.081-.028-.136-.213zm.277-1.324c.056-.038.128-.105.161-.149s.066-.141.075-.215a.521.521 0 0 0-.03-.244.6.6 0 0 0-.161-.198.38.38 0 0 0-.292-.088c-.131 0-.199.016-.263.064a.823.823 0 0 0-.156.165c-.048.071-.069.145-.069.253a.48.48 0 0 0 .062.253.622.622 0 0 0 .161.164c.066.042.15.063.254.063.113 0 .185-.019.257-.069zm2.795-.382c-.019-.012-.042-.105-.052-.205-.013-.123-.036-.196-.071-.221a.247.247 0 0 0-.125-.038c-.054 0-.097.039-.167.153s-.114.153-.163.153a.15.15 0 0 1-.105-.045c-.028-.035-.028-.081.001-.214.034-.151.033-.176-.015-.228-.029-.032-.081-.066-.115-.074-.044-.011-.101.019-.193.104-.071.066-.148.12-.17.12s-.065-.022-.094-.049c-.052-.048-.051-.056.021-.198a.72.72 0 0 0 .076-.209c0-.033-.036-.088-.08-.123-.08-.063-.08-.063-.251.027-.159.084-.175.087-.226.04-.03-.027-.055-.07-.055-.095s.054-.104.12-.176c.084-.091.115-.149.104-.193-.009-.034-.041-.085-.072-.113-.048-.044-.078-.046-.228-.015-.133.027-.182.027-.217-.001-.024-.02-.044-.068-.044-.105 0-.048.044-.095.153-.163s.153-.113.153-.167a.247.247 0 0 0-.04-.126c-.027-.038-.098-.059-.23-.071-.169-.016-.192-.026-.209-.091-.01-.041-.006-.087.009-.102a.87.87 0 0 1 .195-.085c.167-.057.167-.057.167-.188s0-.132-.153-.176c-.084-.024-.172-.062-.195-.085s-.035-.07-.022-.12c.019-.074.031-.079.201-.079.153 0 .188-.011.229-.068.027-.038.048-.1.048-.138 0-.051-.041-.095-.153-.164s-.153-.113-.153-.164c0-.038.017-.085.04-.103.029-.024.092-.024.23.002.175.032.193.03.233-.024a.4.4 0 0 0 .058-.112c.008-.03-.034-.107-.107-.191-.068-.076-.117-.161-.112-.188s.034-.066.062-.083c.041-.026.091-.015.226.052.173.085.173.085.246.016.04-.038.072-.095.072-.129a.58.58 0 0 0-.079-.196c-.076-.129-.077-.137-.027-.194.029-.032.073-.059.099-.059s.104.054.176.12c.091.084.149.115.193.104a.27.27 0 0 0 .113-.072c.044-.048.047-.078.015-.228-.028-.135-.027-.182.003-.218.021-.026.068-.042.102-.037s.102.07.156.154c.07.111.111.145.17.145.043 0 .102-.016.13-.038.034-.026.059-.103.071-.23.017-.17.028-.194.094-.21.041-.01.087-.006.102.009s.054.103.085.195c.057.167.057.167.19.167s.134 0 .18-.159c.027-.088.063-.176.083-.195s.07-.027.114-.016c.072.018.079.032.079.195 0 .096.012.193.026.215s.075.048.136.058c.107.017.114.013.209-.139.054-.087.12-.156.148-.156a.21.21 0 0 1 .104.039c.047.034.049.058.022.176a1.5 1.5 0 0 0-.033.199c0 .037.036.084.088.114a.476.476 0 0 0 .108.052c.01 0 .08-.056.155-.124s.159-.12.188-.114.066.034.085.063c.027.041.014.091-.052.227-.085.174-.085.174.004.263s.09.089.263.004c.135-.067.186-.078.227-.052.028.018.057.057.063.085s-.047.113-.114.188a.906.906 0 0 0-.124.155c0 .01.023.059.052.108s.078.089.114.088a1.308 1.308 0 0 0 .199-.032c.118-.027.143-.024.176.022.021.029.038.076.038.104s-.069.093-.153.145c-.124.078-.153.111-.153.18a.3.3 0 0 0 .029.131c.016.025.097.051.218.061.135.011.199.03.222.069s.024.069.002.103c-.017.027-.107.073-.199.101-.167.05-.167.05-.167.184s0 .134.167.19a.887.887 0 0 1 .195.085c.016.016.02.062.009.103-.016.068-.038.076-.207.089-.137.01-.199.029-.23.07-.023.031-.042.089-.042.127 0 .05.043.098.153.17.084.055.153.121.153.147s-.016.072-.038.102c-.036.049-.057.05-.23.015s-.192-.036-.233.02c-.024.033-.05.085-.059.116-.01.037.027.102.105.187.066.071.12.148.12.17s-.022.065-.049.094c-.048.052-.058.05-.229-.036-.179-.091-.179-.091-.274-.005s-.096.085-.009.261c.068.137.079.188.054.229-.017.029-.057.057-.085.063s-.112-.045-.185-.113c-.087-.081-.153-.118-.189-.108a.412.412 0 0 0-.115.059c-.055.04-.056.059-.023.233.026.137.027.2.002.23-.017.022-.064.04-.102.04-.048 0-.096-.044-.163-.153s-.114-.153-.166-.153a.28.28 0 0 0-.139.048c-.057.04-.069.076-.069.229 0 .169-.006.183-.079.201-.045.011-.094.005-.114-.016s-.058-.107-.083-.195c-.048-.159-.048-.159-.182-.159s-.135 0-.182.153l-.071.191c-.013.021-.048.038-.077.038s-.068-.011-.085-.023zm.891-.757c.1-.026.296-.102.435-.17.188-.092.309-.18.474-.344a2.553 2.553 0 0 0 .337-.419 2.44 2.44 0 0 0 .184-.413c.056-.177.068-.285.068-.612-.001-.352-.01-.423-.082-.622a2.809 2.809 0 0 0-.183-.396 2.306 2.306 0 0 0-.303-.372 2.41 2.41 0 0 0-.372-.301 2.772 2.772 0 0 0-.394-.183c-.199-.072-.27-.081-.622-.082-.328-.001-.435.011-.612.067a2.44 2.44 0 0 0-.413.184 2.66 2.66 0 0 0-.416.331 1.54 1.54 0 0 0-.344.474 2.891 2.891 0 0 0-.173.44 2.38 2.38 0 0 0-.047.476 2.38 2.38 0 0 0 .047.476c.026.101.103.299.173.441a1.6 1.6 0 0 0 .36.492 1.62 1.62 0 0 0 .492.36 2.946 2.946 0 0 0 .427.171c.092.024.306.045.475.046.18.001.382-.017.489-.044zm-.873-.06a2.23 2.23 0 0 1-.374-.117 2.296 2.296 0 0 1-.31-.171 2.479 2.479 0 0 1-.282-.239 2.42 2.42 0 0 1-.261-.324 2.342 2.342 0 0 1-.199-.428c-.072-.212-.085-.302-.086-.587a1.59 1.59 0 0 1 .07-.565c.038-.126.124-.32.189-.43a2.232 2.232 0 0 1 .328-.399 2.562 2.562 0 0 1 .349-.28c.077-.045.249-.119.382-.165.203-.07.294-.083.577-.084a1.74 1.74 0 0 1 .52.054 2.92 2.92 0 0 1 .398.166 1.857 1.857 0 0 1 .445.341 1.857 1.857 0 0 1 .341.445c.061.118.135.296.166.398.039.131.055.28.054.52a1.47 1.47 0 0 1-.086.587 2.14 2.14 0 0 1-.196.417l-.188.255a2.53 2.53 0 0 1-.251.231 2.14 2.14 0 0 1-.367.233 2.269 2.269 0 0 1-.429.14c-.13.027-.316.047-.413.046a2.534 2.534 0 0 1-.376-.043zm.645-1.461a.77.77 0 0 0 .173-.173c.048-.071.07-.148.07-.247a.412.412 0 0 0-.069-.245.79.79 0 0 0-.156-.165c-.064-.048-.132-.064-.265-.064s-.201.016-.265.064a.823.823 0 0 0-.156.165c-.047.068-.069.146-.069.238 0 .082.026.182.064.252a.567.567 0 0 0 .176.179.54.54 0 0 0 .253.065.412.412 0 0 0 .244-.069z" fill="#4d4d4d"/><g transform="matrix(1.038137 0 0 1.057883 -.714345 -.199511)"><path d="M26.07 1.064s-1.035.027-1.91.224c-.437.098-.84.214-1.096.496-.128.141-.202.361-.149.567s.194.379.405.557c.358.301.544.555.603.73s.036.272-.088.42c-.247.297-.537.49-1.608.809l-.513.699c1.096-.325 2.101-.674 2.519-1.177.209-.251.288-.594.179-.917s-.364-.626-.759-.959c-.166-.139-.226-.247-.237-.291s-.014-.099.032-.147c.089-.098.428-.307.827-.397l1.804-.364c.508-.135-.008-.249-.008-.249z" fill="url(#A)"/><text xml:space="preserve" x="21.997" y="4.37" font-size="2.535" font-family="Gentium Basic" letter-spacing="0" word-spacing="0" writing-mode="lr-tb" fill="#06f"><tspan x="21.997" y="4.37" font-weight="normal" writing-mode="lr-tb">1</tspan></text><text xml:space="preserve" x="24.403" y="3.049" font-size="1.571" font-family="Noto Serif" letter-spacing="0" word-spacing="0" writing-mode="lr-tb" fill="#66a4ff"><tspan x="24.403" y="3.049" font-weight="normal" writing-mode="lr-tb">D</tspan></text></g><text xml:space="preserve" x="1.875" y="3.999" font-size="2.822" fill="#ddcdff" stroke="#82b366"><tspan x="1.875" y="3.999" font-weight="normal" font-family="Arial" fill="#000" stroke="none">Recompile</tspan></text></svg>