<svg xmlns="http://www.w3.org/2000/svg" width="70" height="25" viewBox="0 0 18.521 6.615" xmlns:v="https://vecta.io/nano"><defs><linearGradient id="A" x1="23.216" y1="4.878" x2="25.942" y2="-.371" gradientUnits="userSpaceOnUse"><stop offset="0" stop-color="#0067ff"/><stop offset="1" stop-color="#06f" stop-opacity="0"/></linearGradient></defs><path d="M0 0h18.522v6.615H0z" fill="#fff" fill-opacity=".25" paint-order="markers fill stroke"/><g transform="matrix(1.038137 0 0 1.057883 -9.709451 -.199511)"><path d="M26.07 1.064s-1.035.027-1.91.224c-.437.098-.84.214-1.096.496-.128.141-.202.361-.149.567s.194.379.405.557c.358.301.544.555.603.73s.036.272-.088.42c-.247.297-.537.49-1.608.809l-.513.699c1.096-.325 2.101-.674 2.519-1.177.209-.251.288-.594.179-.917s-.364-.626-.759-.959c-.166-.139-.226-.247-.237-.291s-.014-.099.032-.147c.089-.098.428-.307.827-.397l1.804-.364c.508-.135-.008-.249-.008-.249z" fill="url(#A)"/><text xml:space="preserve" x="21.997" y="4.37" font-size="2.535" font-family="Gentium Basic" letter-spacing="0" word-spacing="0" writing-mode="lr-tb" fill="#06f"><tspan x="21.997" y="4.37" font-weight="normal" writing-mode="lr-tb">1</tspan></text><text xml:space="preserve" x="24.403" y="3.049" font-size="1.571" font-family="Noto Serif" letter-spacing="0" word-spacing="0" writing-mode="lr-tb" fill="#66a4ff"><tspan x="24.403" y="3.049" font-weight="normal" writing-mode="lr-tb">D</tspan></text></g><path fill="#4d4d4d" d="M9.145.613l1.579.973a.316.316 0 0 0 .417-.075 3.664 3.664 0 0 1 .325-.379l.016-.013a2.61 2.61 0 0 1 .347.426 10.759 10.759 0 0 1 1.017 1.943 2.148 2.148 0 0 1 .085.291 2.514 2.514 0 0 1-.357.057 9.59 9.59 0 0 1-1.163.031 9.518 9.518 0 0 1-1.156-.094 2.486 2.486 0 0 1-.354-.079l.016-.063a4.422 4.422 0 0 1 .231-.528.316.316 0 0 0-.113-.411l-1.573-.97a.164.164 0 0 1-.057-.237L8.907.67a.164.164 0 0 1 .237-.057z" font-family="sans-serif"/><text xml:space="preserve" x="0.896" y="5.539" font-size="2.752" fill="#ddcdff" stroke="#82b366"><tspan x="0.896" y="5.539" font-weight="normal" font-family="Arial" fill="#000" stroke="none">Save as</tspan></text><path fill="#4d4d4d" fill-rule="evenodd" d="M7.461 1.761a.219.219 0 0 0-.219.222v.553h-.553a.219.219 0 0 0-.219.219v.266a.22.22 0 0 0 .219.219h.553v.553a.22.22 0 0 0 .219.219h.266a.219.219 0 0 0 .219-.219V3.24h.553a.219.219 0 0 0 .222-.219v-.266a.219.219 0 0 0-.222-.219H7.95v-.553a.219.219 0 0 0-.219-.222z"/></svg>