<svg xmlns="http://www.w3.org/2000/svg" width="83" height="25" viewBox="0 0 21.961 6.615" xmlns:v="https://vecta.io/nano"><defs><linearGradient id="A" x1="12.539" y1="4.961" x2="15.369" y2="-.592" gradientUnits="userSpaceOnUse"><stop offset="0" stop-color="#06f"/><stop offset="1" stop-color="#0067ff" stop-opacity="0"/></linearGradient></defs><path d="M-.001 0h21.962v6.615H-.001z" fill="#fff" paint-order="markers fill stroke" fill-opacity=".25"/><g transform="matrix(.999806 0 0 1.000044 5.294656 -.000041)"><path d="M15.502.926s-1.074.029-1.983.237c-.454.104-.872.226-1.138.525a.68.68 0 0 0-.155.6c.055.218.201.401.42.589.372.318.565.587.626.772a.39.39 0 0 1-.091.444c-.256.314-.557.518-1.669.856l-.533.739c1.138-.344 2.181-.713 2.615-1.245.217-.266.299-.628.186-.97s-.378-.662-.788-1.015c-.172-.147-.235-.261-.246-.308s-.015-.105.033-.156c.092-.104.444-.325.859-.42l1.873-.385c.527-.143-.008-.263-.008-.263z" fill="url(#A)"/><text xml:space="preserve" x="11.38" y="4.382" font-size="2.657" font-family="Gentium Basic" letter-spacing="0" word-spacing="0" writing-mode="lr-tb" fill="#06f" transform="scale(.99062325 1.0094655)"><tspan x="11.38" y="4.382" font-weight="normal" writing-mode="lr-tb">1</tspan></text><text xml:space="preserve" x="13.902" y="2.998" font-size="1.646" font-family="Noto Serif" letter-spacing="0" word-spacing="0" writing-mode="lr-tb" fill="#66a4ff" transform="scale(.99062325 1.0094655)"><tspan x="13.902" y="2.998" font-weight="normal" writing-mode="lr-tb">D</tspan></text></g><path fill="#06f" d="M12.584.613l1.579.973a.316.316 0 0 0 .417-.075 3.664 3.664 0 0 1 .325-.379l.016-.013c.06.06.189.189.347.426a10.759 10.759 0 0 1 1.017 1.943 2.148 2.148 0 0 1 .085.291 2.514 2.514 0 0 1-.357.057 9.59 9.59 0 0 1-1.163.031 9.518 9.518 0 0 1-1.156-.094 2.486 2.486 0 0 1-.354-.079l.016-.063a4.422 4.422 0 0 1 .231-.528.316.316 0 0 0-.113-.411l-1.573-.97a.164.164 0 0 1-.057-.237l.502-.815a.164.164 0 0 1 .237-.057z" font-family="sans-serif" paint-order="markers fill stroke"/><text xml:space="preserve" x="0.874" y="3.001" font-size="2.805" font-family="Arial"><tspan x="0.874" y="3.001">Save as</tspan></text><text xml:space="preserve" x="0.91" y="5.652" font-size="2.726" font-family="Arial"><tspan x="0.91" y="5.652">defaults</tspan></text></svg>