<svg xmlns="http://www.w3.org/2000/svg" width="320" height="120" viewBox="0 0 84.668 31.752" xmlns:v="https://vecta.io/nano"><defs><linearGradient id="A" x1="23.216" y1="4.878" x2="25.942" y2="-.371" gradientUnits="userSpaceOnUse"><stop offset="0" stop-color="#06f"/><stop offset="1" stop-color="#06f" stop-opacity="0"/></linearGradient></defs><text xml:space="preserve" x="51.239" y="25.083" font-size="8.82" fill="#000" font-weight="bold" font-family="Arial" text-anchor="middle"><tspan x="51.239" y="25.083">SOSAA</tspan></text><text xml:space="preserve" x="14.289" y="7.864" font-size="3.532" fill="#3771c8" stroke="#82b366"><tspan x="14.289" y="7.864" font-weight="normal" fill="#000" stroke="none" font-family="Arial">Model to Simulate Organic vapours,</tspan></text><text xml:space="preserve" x="20.234" y="12.463" font-size="3.532" fill="#3771c8" stroke="#82b366"><tspan x="20.234" y="12.463" font-weight="normal" fill="#000" stroke="none" font-family="Arial">Sulphuric Acid and Aerosols</tspan></text><g transform="matrix(2.883884 0 0 2.938738 -45.07813 12.110968)"><path d="M26.07 1.064s-1.035.027-1.91.224c-.437.098-.84.214-1.096.496-.128.141-.202.361-.149.567s.194.379.405.557c.358.301.544.555.603.73s.036.272-.088.42c-.247.297-.537.49-1.608.809l-.513.699c1.096-.325 2.101-.674 2.519-1.177.209-.251.288-.594.179-.917s-.364-.626-.759-.959c-.166-.139-.226-.247-.237-.291s-.014-.099.032-.147c.089-.098.428-.307.827-.397l1.804-.364c.508-.135-.008-.249-.008-.249z" fill="url(#A)"/><text xml:space="preserve" x="21.997" y="4.37" font-size="2.535" font-family="Gentium Basic" letter-spacing="0" word-spacing="0" fill="#06f" writing-mode="lr-tb"><tspan x="21.997" y="4.37" font-weight="normal">1</tspan></text><text xml:space="preserve" x="24.403" y="3.049" font-size="1.571" font-family="Noto Serif" letter-spacing="0" word-spacing="0" fill="#66a3ff" writing-mode="lr-tb"><tspan x="24.403" y="3.049" font-weight="normal">D</tspan></text></g></svg>