<svg xmlns="http://www.w3.org/2000/svg" width="63" height="25" viewBox="0 0 16.669 6.615" xmlns:v="https://vecta.io/nano"><defs><linearGradient id="A" x1="23.216" y1="4.878" x2="25.942" y2="-.371" gradientUnits="userSpaceOnUse"><stop offset="0" stop-color="#0065ff"/><stop offset="1" stop-color="#06f" stop-opacity="0"/></linearGradient></defs><path d="M0 0h16.67v6.615H0z" paint-order="markers fill stroke" fill="#fff" fill-opacity=".25"/><text xml:space="preserve" x="0.896" y="5.539" font-size="2.822" fill="#ddcdff" stroke="#82b366"><tspan x="0.896" y="5.539" font-weight="normal" font-family="Arial" fill="#000" stroke="none">Load</tspan></text><path fill="#4d4d4d" d="M10.484 3.96l-1.604-.8a.304.304 0 0 0-.39.11 3.409 3.409 0 0 1-.28.396l-.012.009a2.541 2.541 0 0 1-.371-.377 10.366 10.366 0 0 1-1.144-1.774 2.069 2.069 0 0 1-.11-.274 2.441 2.441 0 0 1 .335-.085c.304-.061.709-.107 1.114-.131a8.704 8.704 0 0 1 1.12-.009 2.392 2.392 0 0 1 .347.046l-.012.061a4.108 4.108 0 0 1-.173.526.304.304 0 0 0 .146.383l1.595.791c.085.046.073.225.073.225l.012 1.059a.158.158 0 0 1-.222.076z" font-family="sans-serif"/><g transform="matrix(1.038137 0 0 1.057883 -11.561607 -.199488)"><path d="M26.07 1.064s-1.035.027-1.91.224c-.437.098-.84.214-1.096.496-.128.141-.202.361-.149.567s.194.379.405.557c.358.301.544.555.603.73s.036.272-.088.42c-.247.297-.537.49-1.608.809l-.513.699c1.096-.325 2.101-.674 2.519-1.177.209-.251.288-.594.179-.917s-.364-.626-.759-.959c-.166-.139-.226-.247-.237-.291s-.014-.099.032-.147c.089-.098.428-.307.827-.397l1.804-.364c.508-.135-.008-.249-.008-.249z" fill="url(#A)"/><text xml:space="preserve" x="21.997" y="4.37" font-size="2.535" font-family="Gentium Basic" letter-spacing="0" word-spacing="0" writing-mode="lr-tb" fill="#06f"><tspan x="21.997" y="4.37" font-weight="normal" writing-mode="lr-tb">1</tspan></text><text xml:space="preserve" x="24.403" y="3.049" font-size="1.571" font-family="Noto Serif" letter-spacing="0" word-spacing="0" writing-mode="lr-tb" fill="#66a3ff"><tspan x="24.403" y="3.049" font-weight="normal" writing-mode="lr-tb">D</tspan></text></g></svg>