<svg xmlns="http://www.w3.org/2000/svg" width="63" height="25" viewBox="0 0 16.669 6.615" xmlns:v="https://vecta.io/nano"><defs><linearGradient id="A" x1="23.216" y1="4.878" x2="25.942" y2="-.371" gradientUnits="userSpaceOnUse"><stop offset="0" stop-color="gray"/><stop offset="1" stop-color="gray" stop-opacity="0"/></linearGradient></defs><path d="M0 0h16.67v6.615H0z" paint-order="markers fill stroke" fill="#fff" fill-opacity=".5"/><text xml:space="preserve" x="0.896" y="5.539" font-size="2.822" fill="#ddcdff" stroke="#82b366"><tspan x="0.896" y="5.539" font-weight="normal" font-family="Arial" fill="#565656" stroke="none">Save</tspan></text><g transform="matrix(1.038137 0 0 1.057883 -11.561607 -.199488)"><path d="M26.07 1.064s-1.035.027-1.91.224c-.437.098-.84.214-1.096.496-.128.141-.202.361-.149.567s.194.379.405.557c.358.301.544.555.603.73s.036.272-.088.42c-.247.297-.537.49-1.608.809l-.513.699c1.096-.325 2.101-.674 2.519-1.177.209-.251.288-.594.179-.917s-.364-.626-.759-.959c-.166-.139-.226-.247-.237-.291s-.014-.099.032-.147c.089-.098.428-.307.827-.397l1.804-.364c.508-.135-.008-.249-.008-.249z" fill="url(#A)"/><text xml:space="preserve" x="21.997" y="4.37" font-size="2.535" font-family="Gentium Basic" letter-spacing="0" word-spacing="0" writing-mode="lr-tb" fill="gray"><tspan x="21.997" y="4.37" font-weight="normal" writing-mode="lr-tb">1</tspan></text><text xml:space="preserve" x="24.403" y="3.049" font-size="1.571" font-family="Noto Serif" letter-spacing="0" word-spacing="0" writing-mode="lr-tb" fill="#b3b3b3"><tspan x="24.403" y="3.049" font-weight="normal" writing-mode="lr-tb">D</tspan></text></g><path fill="gray" d="M7.282.613l1.579.973a.316.316 0 0 0 .417-.075 3.664 3.664 0 0 1 .325-.379l.02-.013a2.61 2.61 0 0 1 .347.426 10.759 10.759 0 0 1 1.017 1.943 2.148 2.148 0 0 1 .09.291 2.514 2.514 0 0 1-.357.057 9.59 9.59 0 0 1-1.163.031 9.518 9.518 0 0 1-1.156-.094 2.486 2.486 0 0 1-.354-.079l.02-.063a4.422 4.422 0 0 1 .231-.528.316.316 0 0 0-.113-.411l-1.573-.97a.164.164 0 0 1-.06-.237L7.054.67a.164.164 0 0 1 .237-.057z" font-family="sans-serif"/></svg>